<svg width="62" height="47" viewBox="0 0 62 47" fill="none" xmlns="http://www.w3.org/2000/svg">
<path d="M34.1973 10.4456V6.44737H36.1183C37.7152 6.44737 38.9999 5.16266 38.9999 3.56579C38.9999 1.96891 37.7152 0.68421 36.1183 0.68421H26.405C24.9162 0.68421 23.6315 1.97492 23.6315 3.45773C23.6315 4.94054 24.9162 6.44737 26.405 6.44737H28.4341V10.448C14.9387 11.8863 4.42096 23.3046 4.42096 37.1842H58.2104C58.2104 23.3046 47.6927 11.8863 34.1973 10.4456ZM59.171 41.0263H3.46044C1.86956 41.0263 0.578857 42.311 0.578857 43.7998C0.578857 45.5048 1.86956 46.7895 3.35238 46.7895H59.0629C60.6538 46.7895 61.9445 45.4988 61.9445 44.016C62.0525 42.311 60.7678 41.0263 59.171 41.0263Z" fill="#3A8FBE"/>
</svg>
