<svg width="35" height="35" viewBox="0 0 35 35" fill="none" xmlns="http://www.w3.org/2000/svg">
<path d="M17.4314 29.2371H3.68707V3.55075H24.3035V21.4361C24.3874 21.474 24.4292 21.5122 24.5131 21.5502C24.597 21.0936 24.8902 20.675 25.3511 20.3706C25.7702 20.1041 26.1891 19.99 26.6083 20.0661C26.9017 20.1041 27.1949 20.2565 27.4884 20.4468C27.4884 20.4088 27.5302 20.3326 27.5723 20.2947V2.90407C27.5723 1.49615 26.2733 0.316549 24.723 0.316549L3.26773 0.316284C1.71739 0.316284 0.418457 1.49589 0.418457 2.90381V29.884C0.418457 31.2919 1.71739 32.4715 3.26773 32.4715H20.7414L17.4314 29.2371ZM13.9116 1.68611C14.079 1.68611 14.2468 1.83821 14.2468 1.99058C14.2468 2.14268 14.0793 2.29504 13.9116 2.29504C13.7441 2.29504 13.5763 2.14294 13.5763 1.99058C13.5763 1.83821 13.7438 1.68611 13.9116 1.68611ZM14.1208 31.5203C13.4924 31.6724 12.9476 31.1397 13.1151 30.607C13.199 30.3405 13.4086 30.1504 13.7017 30.0742C14.3302 29.9221 14.875 30.4549 14.7075 30.9876C14.6239 31.2159 14.3722 31.4444 14.1208 31.5203Z" fill="#020202"/>
<path d="M17.8501 28.6282L21.9148 32.5478C24.1356 34.717 27.7393 35.1353 30.5049 33.5371C30.5467 33.5371 30.5467 33.4991 30.5888 33.4991L31.8878 32.7381C34.6113 31.1399 35.4076 27.9052 33.7316 25.3937L30.547 20.675C30.1699 20.1422 29.709 19.8757 29.2898 19.914C28.8289 19.9519 28.4518 20.2946 28.3261 20.5609C28.2422 20.7512 28.2004 20.9415 28.2843 21.0174C28.2843 21.0174 28.2843 21.0554 28.3261 21.0554C28.3261 21.0554 29.3737 22.806 29.8347 23.4146C29.9603 23.5667 29.8765 23.7953 29.709 23.9094C29.5415 24.0236 29.2898 23.9474 29.1641 23.7953L27.6556 21.6643C27.2785 21.0936 26.8594 20.7892 26.5241 20.713C26.3146 20.675 26.0632 20.751 25.8536 20.9033H25.8118C25.3091 21.2078 25.1413 21.8547 25.4766 22.3112L27.1947 24.7846C27.3204 24.9367 27.2365 25.1653 27.069 25.2794H27.0272C26.8597 25.3935 26.608 25.3173 26.4824 25.1652L24.9317 22.9581C24.6803 22.5775 24.3033 22.1209 23.8423 22.0068C23.6327 21.9688 23.3813 22.0068 23.0882 22.1971C22.8786 22.3492 22.7529 22.5016 22.7111 22.6919C22.6272 23.1105 22.8368 23.6432 23.1303 24.138L24.136 25.5459C24.3456 25.8124 24.4713 26.0025 24.5131 26.1166C24.597 26.2687 24.5131 26.4973 24.3456 26.5732C24.1781 26.6494 23.9265 26.6111 23.8429 26.459L23.4658 25.9263C23.4658 25.8883 23.424 25.8883 23.424 25.8501C23.1305 25.4695 22.7535 24.9749 22.4603 24.4422L19.6528 20.3703C19.3175 19.8755 18.6052 19.7234 18.1024 20.0279C17.5997 20.3323 17.4319 20.9792 17.7672 21.4358L23.2985 29.4271C23.3824 29.5792 23.3824 29.7695 23.2147 29.8837C23.0472 29.9978 22.8376 29.9978 22.7119 29.8837C22.628 29.8457 22.5444 29.7316 22.4184 29.6554C21.79 29.1227 20.3651 27.8289 19.0661 27.9048C18.6043 28.0574 18.2272 28.2475 17.8499 28.6281L17.8501 28.6282Z" fill="black"/>
<path d="M18.8561 18.582C19.4009 18.582 19.8618 18.1634 19.8618 17.6687V17.6307C19.8618 14.4343 17.2218 11.8085 13.9534 11.8085C10.6849 11.8085 8.04492 14.4722 8.04492 17.6686C8.04492 18.1634 8.50587 18.582 9.05068 18.582L18.8561 18.582Z" fill="#020202"/>
<path d="M17.1377 8.3836C17.1377 9.98105 15.7119 11.2758 13.9531 11.2758C12.1944 11.2758 10.7686 9.98098 10.7686 8.3836C10.7686 6.78643 12.1944 5.49158 13.9531 5.49158C15.7119 5.49158 17.1377 6.78643 17.1377 8.3836Z" fill="#020202"/>
</svg>
