<svg width="35" height="35" viewBox="0 0 35 35" fill="none" xmlns="http://www.w3.org/2000/svg">
<path d="M29.6921 7.38968C29.6921 7.71519 29.4284 7.97913 29.1026 7.97913C28.7771 7.97913 28.5132 7.71519 28.5132 7.38968C28.5132 7.06417 28.7771 6.80023 29.1026 6.80023C29.4284 6.80023 29.6921 7.06417 29.6921 7.38968Z" fill="black"/>
<path d="M24.9763 7.38968C24.9763 7.71519 24.7126 7.97913 24.3868 7.97913C24.0613 7.97913 23.7974 7.71519 23.7974 7.38968C23.7974 7.06417 24.0613 6.80023 24.3868 6.80023C24.7126 6.80023 24.9763 7.06417 24.9763 7.38968Z" fill="black"/>
<path d="M27.3342 7.38968C27.3342 7.71519 27.0705 7.97913 26.7447 7.97913C26.4192 7.97913 26.1553 7.71519 26.1553 7.38968C26.1553 7.06417 26.4192 6.80023 26.7447 6.80023C27.0705 6.80023 27.3342 7.06417 27.3342 7.38968Z" fill="black"/>
<path d="M22.6188 7.38968C22.6188 7.71519 22.3552 7.97913 22.0294 7.97913C21.7039 7.97913 21.4399 7.71519 21.4399 7.38968C21.4399 7.06417 21.7039 6.80023 22.0294 6.80023C22.3552 6.80023 22.6188 7.06417 22.6188 7.38968Z" fill="black"/>
<path d="M6.1078 13.8736C5.48257 13.8736 4.88282 14.122 4.4405 14.5641C3.99841 15.0064 3.75 15.6062 3.75 16.2314C3.75 16.8566 3.99841 17.4564 4.4405 17.8987C4.88285 18.3408 5.48258 18.5892 6.1078 18.5892C6.73302 18.5892 7.33278 18.3408 7.7751 17.8987C8.21719 17.4563 8.4656 16.8566 8.4656 16.2314C8.4656 15.6062 8.21719 15.0064 7.7751 14.5641C7.33275 14.122 6.73302 13.8736 6.1078 13.8736ZM6.1078 17.4103C5.79518 17.4103 5.49519 17.2861 5.27415 17.065C5.05311 16.844 4.9289 16.544 4.9289 16.2314C4.9289 15.9188 5.05311 15.6188 5.27415 15.3977C5.49519 15.1767 5.79518 15.0525 6.1078 15.0525C6.42042 15.0525 6.72041 15.1767 6.94145 15.3977C7.16249 15.6188 7.2867 15.9188 7.2867 16.2314C7.2867 16.544 7.16249 16.844 6.94145 17.065C6.72041 17.2861 6.42042 17.4103 6.1078 17.4103Z" fill="black"/>
<path d="M6.1078 19.7681C5.48257 19.7681 4.88282 20.0165 4.4405 20.4586C3.99841 20.9009 3.75 21.5006 3.75 22.1259C3.75 22.7511 3.99841 23.3508 4.4405 23.7932C4.88285 24.2353 5.48258 24.4837 6.1078 24.4837C6.73302 24.4837 7.33278 24.2353 7.7751 23.7932C8.21719 23.3508 8.4656 22.7511 8.4656 22.1259C8.4656 21.5006 8.21719 20.9009 7.7751 20.4586C7.33275 20.0165 6.73302 19.7681 6.1078 19.7681ZM6.1078 23.3048C5.79518 23.3048 5.49519 23.1806 5.27415 22.9595C5.05311 22.7385 4.9289 22.4385 4.9289 22.1259C4.9289 21.8132 5.05311 21.5133 5.27415 21.2922C5.49519 21.0712 5.79518 20.947 6.1078 20.947C6.42042 20.947 6.72041 21.0712 6.94145 21.2922C7.16249 21.5133 7.2867 21.8132 7.2867 22.1259C7.2867 22.4385 7.16249 22.7385 6.94145 22.9595C6.72041 23.1806 6.42042 23.3048 6.1078 23.3048Z" fill="black"/>
<path d="M9.64453 23.3048C9.64453 23.4611 9.70663 23.6111 9.81716 23.7216C9.92768 23.8321 10.0777 23.8942 10.234 23.8942H27.9175C28.243 23.8942 28.5069 23.6303 28.5069 23.3048C28.5069 22.9793 28.243 22.7153 27.9175 22.7153H10.234C9.90847 22.7153 9.64453 22.9793 9.64453 23.3048Z" fill="black"/>
<path d="M6.1078 25.6626C5.48257 25.6626 4.88282 25.911 4.4405 26.3531C3.99841 26.7954 3.75 27.3952 3.75 28.0204C3.75 28.6456 3.99841 29.2454 4.4405 29.6877C4.88285 30.1298 5.48258 30.3782 6.1078 30.3782C6.73302 30.3782 7.33278 30.1298 7.7751 29.6877C8.21719 29.2453 8.4656 28.6456 8.4656 28.0204C8.4656 27.3952 8.21719 26.7954 7.7751 26.3531C7.33275 25.911 6.73302 25.6626 6.1078 25.6626ZM6.1078 29.1993C5.79518 29.1993 5.49519 29.0751 5.27415 28.854C5.05311 28.633 4.9289 28.333 4.9289 28.0204C4.9289 27.7078 5.05311 27.4078 5.27415 27.1867C5.49519 26.9657 5.79518 26.8415 6.1078 26.8415C6.42042 26.8415 6.72041 26.9657 6.94145 27.1867C7.16249 27.4078 7.2867 27.7078 7.2867 28.0204C7.2867 28.333 7.16249 28.633 6.94145 28.854C6.72041 29.0751 6.42042 29.1993 6.1078 29.1993Z" fill="black"/>
<path d="M33.2225 10.9263H32.0436V6.80019C32.0436 6.33127 31.8573 5.88126 31.5258 5.54975C31.1942 5.21825 30.7442 5.03188 30.2753 5.03188H13.7707V1.49518C13.7707 1.18257 13.6465 0.882573 13.4255 0.661533C13.2044 0.440493 12.9044 0.316284 12.5918 0.316284H1.39228C1.07966 0.316284 0.779669 0.440493 0.558628 0.661533C0.337588 0.882573 0.213379 1.18257 0.213379 1.49518V9.74748C0.213379 10.0601 0.337588 10.3601 0.558628 10.5811C0.779669 10.8022 1.07966 10.9264 1.39228 10.9264V31.5571C1.39228 32.026 1.57859 32.476 1.91015 32.8075C2.24172 33.1391 2.69173 33.3254 3.1606 33.3254H9.64455C9.64455 33.638 9.76875 33.938 9.9898 34.1591C10.2108 34.3801 10.5108 34.5043 10.8234 34.5043H22.023C22.3356 34.5043 22.6356 34.3801 22.8566 34.1591C23.0777 33.938 23.2019 33.638 23.2019 33.3254H30.2753C30.7442 33.3254 31.1942 33.1391 31.5257 32.8075C31.8572 32.476 32.0436 32.026 32.0436 31.5571V22.1259H33.2225C33.5351 22.1259 33.8351 22.0017 34.0562 21.7807C34.2772 21.5596 34.4014 21.2596 34.4014 20.947V12.1053C34.4014 11.7927 34.2772 11.4927 34.0562 11.2716C33.8351 11.0506 33.5351 10.9264 33.2225 10.9264L33.2225 10.9263ZM13.7707 6.21074H30.2753C30.4316 6.21074 30.5816 6.27285 30.6921 6.38337C30.8026 6.49389 30.8647 6.64389 30.8647 6.80019V10.9263H29.6858V9.15799C29.6858 9.00168 29.6237 8.85169 29.5132 8.74117C29.4027 8.63065 29.2527 8.56854 29.0964 8.56854H13.7707V6.21074ZM13.7707 9.74744H28.5069V10.9263H22.023C21.6043 10.929 21.2186 11.1532 21.0091 11.5158H7.14521L7.5873 10.9263H12.5918C12.9044 10.9263 13.2044 10.8021 13.4255 10.5811C13.6465 10.3601 13.7707 10.0601 13.7707 9.74744H13.7707ZM1.39225 9.74744V1.49515H12.5918V9.74744H7.58726C7.21623 9.74744 6.86679 9.92217 6.64414 10.219L5.5184 11.6808L4.39844 10.1895C4.17582 9.89267 3.82636 9.71794 3.45532 9.71794L1.39225 9.74744ZM22.023 33.3254H10.8234V28.0204H12.8923C13.2636 28.0204 13.6128 27.8456 13.8354 27.5488L14.9496 26.0575L16.0696 27.5488C16.2922 27.8456 16.6416 28.0204 17.0127 28.0204H22.023V33.3254ZM30.8647 31.5571C30.8647 31.7134 30.8026 31.8634 30.6921 31.9739C30.5816 32.0844 30.4316 32.1465 30.2753 32.1465H23.2019V29.7887H27.9175C28.243 29.7887 28.5069 29.5248 28.5069 29.1993C28.5069 28.8738 28.243 28.6098 27.9175 28.6098H23.2019V28.0204C23.2019 27.7078 23.0777 27.4078 22.8566 27.1867C22.6356 26.9657 22.3356 26.8415 22.023 26.8415H17.0245L15.9046 25.3502C15.6819 25.0534 15.3325 24.8786 14.9615 24.8786C14.5904 24.8786 14.241 25.0534 14.0183 25.3502L12.8984 26.8415H10.8234C10.5108 26.8415 10.2108 26.9657 9.9898 27.1867C9.76875 27.4078 9.64455 27.7078 9.64455 28.0204V32.1465H3.1606C2.83508 32.1465 2.57115 31.8826 2.57115 31.5571V10.9263H3.45532L4.57528 12.4176C4.75501 12.6547 5.01789 12.815 5.31077 12.8663C5.60366 12.9176 5.90522 12.8563 6.15493 12.6947H20.844V14.127L20.2546 14.4631H10.2339C9.90842 14.4631 9.64448 14.727 9.64448 15.0525C9.64448 15.378 9.90842 15.642 10.2339 15.642H18.3037C18.0447 15.8633 17.8945 16.1856 17.8911 16.5262C17.8926 16.6256 17.9066 16.7246 17.9321 16.8209H10.2342C9.90871 16.8209 9.64477 17.0848 9.64477 17.4103C9.64477 17.7358 9.90871 17.9998 10.2342 17.9998H19.2531L20.8447 18.9252V20.3576H10.2346C9.90905 20.3576 9.64511 20.6215 9.64511 20.947C9.64511 21.2725 9.90905 21.5365 10.2346 21.5365H20.8447C20.8936 21.5425 20.9431 21.5425 20.992 21.5365C21.0965 21.7173 21.2467 21.867 21.4281 21.9707C21.6094 22.0741 21.8149 22.1278 22.0236 22.1259H30.8653L30.8647 31.5571ZM22.023 20.947V18.9252C22.0204 18.5065 21.7962 18.1205 21.4335 17.9113L19.0757 16.5261L21.4335 15.1409C21.7962 14.9317 22.0204 14.5457 22.023 14.127V12.1052H33.2225V20.947H22.023Z" fill="black"/>
<path d="M29.2267 13.3138C28.6357 13.2304 28.0347 13.3646 27.5349 13.6912C27.0368 13.3609 26.4345 13.2267 25.8432 13.3138C25.2953 13.4446 24.8008 13.7414 24.4277 14.1632C24.0543 14.585 23.8198 15.1119 23.7567 15.6716C23.5385 17.3279 25.0535 19.0373 27.3642 19.7507H27.3639C27.476 19.7815 27.5939 19.7815 27.706 19.7507C30.0167 19.0375 31.5316 17.3221 31.3135 15.6716H31.3132C31.2501 15.1119 31.0156 14.5851 30.6422 14.1632C30.2691 13.7414 29.7746 13.4446 29.2267 13.3138H29.2267ZM27.5349 18.5893C25.7666 17.9999 24.8058 16.7383 24.9237 15.8484C24.9516 15.5342 25.0716 15.235 25.2687 14.9887C25.4658 14.7421 25.7313 14.5595 26.0318 14.4631H26.191C26.5455 14.4853 26.8818 14.6266 27.146 14.8639C27.3684 15.0594 27.7015 15.0594 27.9239 14.8639C28.2215 14.5779 28.6265 14.4321 29.038 14.4631C29.3325 14.5566 29.5941 14.7331 29.7906 14.9715C29.9872 15.21 30.1106 15.5002 30.1461 15.807C30.2759 16.7088 29.3209 17.9527 27.5349 18.5893L27.5349 18.5893Z" fill="black"/>
<path d="M11.4126 29.7887C11.4126 29.945 11.4747 30.095 11.5852 30.2056C11.6957 30.3161 11.8457 30.3782 12.002 30.3782H19.0754C19.401 30.3782 19.6649 30.1142 19.6649 29.7887C19.6649 29.4632 19.401 29.1993 19.0754 29.1993H12.002C11.6765 29.1993 11.4126 29.4632 11.4126 29.7887Z" fill="black"/>
<path d="M11.4126 31.5571C11.4126 31.7134 11.4747 31.8634 11.5852 31.9739C11.6957 32.0844 11.8457 32.1466 12.002 32.1466H20.2543C20.5799 32.1466 20.8438 31.8826 20.8438 31.5571C20.8438 31.2316 20.5799 30.9677 20.2543 30.9677H12.002C11.6765 30.9677 11.4126 31.2316 11.4126 31.5571Z" fill="black"/>
<path d="M3.75026 6.80019C3.75026 6.3789 3.97498 5.98972 4.33971 5.7792C4.70443 5.56868 5.15389 5.56868 5.51861 5.7792C5.88333 5.98972 6.10806 6.37891 6.10806 6.80019C6.10806 7.12571 6.372 7.38964 6.69751 7.38964C7.02302 7.38964 7.28696 7.12571 7.28696 6.80019C7.28696 6.0073 6.88829 5.26763 6.22595 4.8313C6.33884 4.62104 6.39936 4.38632 6.40278 4.14767C6.40278 3.62112 6.122 3.13483 5.66594 2.87143C5.2099 2.60829 4.64838 2.60829 4.19231 2.87143C3.73628 3.13484 3.45546 3.62114 3.45546 4.14767C3.45599 4.38687 3.51678 4.62213 3.6323 4.8313C2.96996 5.2676 2.57129 6.0073 2.57129 6.80019C2.57129 7.12571 2.83523 7.38964 3.16074 7.38964C3.48625 7.38964 3.75019 7.12571 3.75019 6.80019H3.75026ZM4.92916 3.85295C5.09205 3.85295 5.22388 3.98478 5.22388 4.14767C5.22388 4.31056 5.09205 4.4424 4.92916 4.4424C4.76627 4.4424 4.63443 4.31056 4.63443 4.14767C4.63443 3.98478 4.76627 3.85295 4.92916 3.85295Z" fill="black"/>
<path d="M6.69733 8.56851C6.69733 8.89402 6.96127 9.15796 7.28678 9.15796C7.61229 9.15796 7.87623 8.89402 7.87623 8.56851C7.87623 8.14721 8.10096 7.75803 8.46568 7.54751C8.83041 7.33699 9.27987 7.33699 9.64458 7.54751C10.0093 7.75803 10.234 8.14722 10.234 8.56851C10.234 8.89402 10.498 9.15796 10.8235 9.15796C11.149 9.15796 11.4129 8.89402 11.4129 8.56851C11.4129 7.77561 11.0143 7.03594 10.3519 6.59961C10.4648 6.38935 10.5253 6.15463 10.5288 5.91598C10.5288 5.38943 10.248 4.90314 9.79191 4.63974C9.33588 4.3766 8.77435 4.3766 8.31829 4.63974C7.86225 4.90315 7.58144 5.38945 7.58144 5.91598C7.58197 6.15518 7.64275 6.39044 7.75828 6.59961C7.09594 7.03591 6.69727 7.77561 6.69727 8.56851H6.69733ZM9.05513 5.62126C9.21802 5.62126 9.34986 5.75309 9.34986 5.91598C9.34986 6.07887 9.21802 6.21071 9.05513 6.21071C8.89224 6.21071 8.76041 6.07887 8.76041 5.91598C8.76041 5.75309 8.89224 5.62126 9.05513 5.62126Z" fill="black"/>
</svg>
