<svg width="56" height="56" viewBox="0 0 56 56" fill="none" xmlns="http://www.w3.org/2000/svg">
<path d="M55.9999 31.0135C55.9999 34.8202 53.6857 37.9054 50.831 37.9054C47.3387 37.9054 47.4152 34.4595 44.8393 34.4595C43.3899 34.4595 42.2161 35.6333 42.2161 37.087V51.6892C42.2161 53.592 40.673 55.1352 38.7702 55.1352H31.0555C29.6061 55.1352 28.4323 53.9614 28.4323 52.5076C28.4323 49.8693 31.8783 50.0093 31.8783 46.5203C31.8783 43.6655 28.7931 41.3514 24.9864 41.3514C21.1797 41.3514 18.0945 43.6655 18.0945 46.5203C18.0945 50.0125 21.5404 49.9361 21.5404 52.5119C21.5404 53.9614 20.3666 55.1352 18.9129 55.1352H4.31069C2.40788 55.1352 0.864746 53.592 0.864746 51.6892V37.087C0.864746 35.6333 2.0396 34.4595 3.48797 34.4595C6.03905 34.4595 5.99059 37.9054 9.47961 37.9054C12.3333 37.9054 14.6485 34.8148 14.6485 31.0135C14.6485 27.2122 12.3333 24.0247 9.47961 24.0247C5.98736 24.0247 6.06382 27.4707 3.48797 27.4707C2.0396 27.4707 0.864746 26.3938 0.864746 24.94V17.2254C0.864746 15.3226 2.40788 13.8764 4.31069 13.8764H18.9129C20.3666 13.6869 21.5404 12.61 21.5404 11.1563C21.5404 8.60518 18.0945 8.65364 18.0945 5.16462C18.0945 2.30986 21.1797 0.0926123 24.9864 0.0926123C28.7931 0.0926123 31.8783 2.40678 31.8783 5.16462C31.8783 8.65687 28.4323 8.58041 28.4323 11.1563C28.4323 12.6046 29.6072 13.7795 31.0555 13.7795H38.7702C40.673 13.7795 42.2161 15.3226 42.2161 17.1285V24.8431C42.2161 26.2915 43.3909 27.4664 44.8393 27.4664C47.3904 27.4664 47.3419 24.0204 50.831 24.0204C53.6846 24.0247 55.9999 27.2122 55.9999 31.0135Z" fill="#3A8FBE"/>
</svg>
