<svg width="38" height="38" viewBox="0 0 38 38" fill="none" xmlns="http://www.w3.org/2000/svg">
<path d="M6.97071 3.54756C6.97071 1.58827 8.30882 0 9.95812 0C11.6074 0 12.9455 1.58827 12.9455 3.54756C12.9455 5.50684 11.6074 7.09512 9.95812 7.09512C8.30882 7.09512 6.97071 5.50684 6.97071 3.54756ZM7.46861 37.8406C6.367 37.8406 5.477 36.7837 5.477 35.4756V18.9868L3.69887 22.5048C3.13251 23.6208 1.90891 23.983 0.966012 23.3104C0.0231109 22.6379 -0.281854 21.1893 0.285132 20.0659L3.91172 12.9042C4.99155 10.7683 6.93336 9.46015 9.03078 9.46015H17.9245V3.54756C17.9245 1.58827 19.2627 2.21722e-05 20.912 2.21722e-05H34.8532C36.5025 2.21722e-05 37.8406 1.58827 37.8406 3.54756V20.1028C37.8406 22.0614 36.5025 23.6504 34.8532 23.6504H20.912C19.2627 23.6504 17.9245 22.0614 17.9245 20.1028V16.5553H21.9078V18.9203H33.8574V4.73008H21.9078V9.46015H22.9036C24.0052 9.46015 24.8952 10.517 24.8952 11.8252C24.8952 13.1334 24.0052 14.1902 22.9036 14.1902H14.4392V35.4756C14.4392 36.7837 13.5492 37.8406 12.4476 37.8406C11.346 37.8406 10.456 36.7837 10.456 35.4756V26.0154H9.46022V35.4756C9.46022 36.7837 8.57022 37.8406 7.46861 37.8406Z" fill="#3A8FBE"/>
</svg>
