<svg width="40" height="40" viewBox="0 0 40 40" fill="none" xmlns="http://www.w3.org/2000/svg">
<path d="M11.3827 3.41034L11.3821 3.4111L5.8706 10.8199C5.60376 11.1699 5.28756 11.3078 5.01534 11.2728L4.93347 11.2623L4.85256 11.2786C4.59557 11.3306 4.28971 11.2289 4.01258 10.8336L4.00112 10.8172L3.98839 10.8018L0.923743 7.09816L0.91604 7.08885L0.907897 7.07993C0.371986 6.49252 0.350811 5.36593 0.923713 4.67369L0.92373 4.67367C1.19527 4.34554 1.52857 4.20421 1.83873 4.20421C2.1489 4.20421 2.48217 4.34554 2.75366 4.67365L2.75395 4.674L4.44789 6.7175L4.85361 7.20694L5.23365 6.69731L9.45663 1.03439L9.45788 1.03271C9.71485 0.685086 10.0437 0.521819 10.3545 0.502079C10.6641 0.482419 11.0009 0.602016 11.2849 0.90898C11.8686 1.54861 11.9245 2.68484 11.3827 3.41034ZM11.2851 15.7277L11.2853 15.7279C11.8672 16.3594 11.9259 17.4985 11.3821 18.2295L5.87207 25.6327C5.87159 25.6333 5.87111 25.634 5.87063 25.6346C5.60379 25.9846 5.28757 26.1225 5.01534 26.0875L4.93347 26.077L4.85256 26.0933C4.59557 26.1453 4.28971 26.0436 4.01258 25.6483L4.00112 25.6319L3.98839 25.6165L0.923743 21.9129L0.91604 21.9036L0.907897 21.8946C0.372494 21.3078 0.350423 20.1817 0.923361 19.486C1.19423 19.1617 1.52743 19.021 1.83873 19.021C2.15012 19.021 2.48339 19.1618 2.75426 19.4863C2.75445 19.4865 2.75465 19.4868 2.75484 19.487L4.44768 21.5319L4.85348 22.0222L5.23374 21.5119L9.45673 15.8453L9.45715 15.8447C9.7138 15.4993 10.0424 15.3367 10.3535 15.3175C10.6635 15.2985 11.0009 15.4188 11.2851 15.7277ZM17.6616 5.92619C17.6616 4.4731 18.6181 3.46325 19.6133 3.46325H36.7749C37.7701 3.46325 38.7265 4.4731 38.7265 5.92619C38.7265 7.38173 37.7703 8.38913 36.7749 8.38913H19.6133C18.6178 8.38913 17.6616 7.38173 17.6616 5.92619ZM17.6616 20.7409C17.6616 19.2853 18.6178 18.2779 19.6133 18.2779H36.7749C37.7703 18.2779 38.7265 19.2853 38.7265 20.7409C38.7265 22.1964 37.7703 23.2038 36.7749 23.2038H19.6133C18.6178 23.2038 17.6616 22.1964 17.6616 20.7409ZM12.7583 35.5556C12.7583 34.1 13.7145 33.0927 14.7099 33.0927H36.7749C37.7703 33.0927 38.7265 34.1 38.7265 35.5556C38.7265 37.0111 37.7703 38.0185 36.7749 38.0185H14.7099C13.7145 38.0185 12.7583 37.0111 12.7583 35.5556ZM0.5 35.5556C0.5 33.2852 2.0071 31.6112 3.67749 31.6112C5.34787 31.6112 6.85497 33.2852 6.85497 35.5556C6.85497 37.826 5.34787 39.5 3.67749 39.5C2.0071 39.5 0.5 37.826 0.5 35.5556Z" fill="#3A8FBE" stroke="white"/>
</svg>
