<svg width="40" height="40" viewBox="0 0 40 40" fill="none" xmlns="http://www.w3.org/2000/svg">
<path d="M14.205 18.3661L15.6529 22.1429H12.7572L14.205 18.3661ZM28.4101 22.1429C28.4101 23.3304 27.6793 24.2857 26.771 24.2857C25.8627 24.2857 25.132 23.3304 25.132 22.1429C25.132 20.9554 25.8627 20 26.771 20C27.6793 20 28.4101 20.9554 28.4101 22.1429ZM34.9662 0C37.377 0 39.337 2.55804 39.337 5.71429V34.2857C39.337 37.4375 37.377 40 34.9662 40H4.37078C1.95661 40 0 37.4375 0 34.2857V5.71429C0 2.55804 1.95661 0 4.37078 0H34.9662ZM15.6733 12.6161C15.3933 11.8839 14.8265 11.4286 14.205 11.4286C13.5836 11.4286 13.0167 11.8839 12.7367 12.6161L7.8196 25.4732C7.41667 26.5268 7.74448 27.8125 8.55717 28.3482C9.36303 28.875 10.3465 28.4464 10.7562 27.3839L11.1182 26.4286H17.2919L17.6539 27.3839C18.0636 28.4464 19.047 28.875 19.8529 28.3482C20.6656 27.8125 20.9934 26.5268 20.5905 25.4732L15.6733 12.6161ZM28.4101 16.0804C27.8979 15.8393 27.3447 15.7143 26.771 15.7143C24.0529 15.7143 21.8539 18.5893 21.8539 22.1429C21.8539 25.6964 24.0529 28.5714 26.771 28.5714C27.5291 28.5714 28.2462 28.3482 28.8881 27.8661C29.1886 28.3304 29.5984 28.5714 30.0491 28.5714C30.9574 28.5714 31.6882 27.6161 31.6882 26.4286V13.5714C31.6882 12.3839 30.9574 11.4286 30.0491 11.4286C29.1408 11.4286 28.4101 12.3839 28.4101 13.5714V16.0804Z" fill="#3A8FBE"/>
</svg>
