<svg width="38" height="38" viewBox="0 0 38 38" fill="none" xmlns="http://www.w3.org/2000/svg">
<path d="M0 4.72996C0 2.11733 2.82327 -0.00012207 6.30677 -0.00012207H31.5338C35.0124 -0.00012207 37.8406 2.11733 37.8406 4.72996V26.0153H25.2271C23.4829 26.0153 22.0737 27.0722 22.0737 28.3803V37.8405H6.30677C2.82327 37.8405 0 35.7194 0 33.1104V4.72996ZM16.8805 3.89406C16.2695 3.43214 15.2644 3.43214 14.6534 3.89406L5.19225 10.9899C4.57635 11.4481 4.57635 12.202 5.19225 12.6602C5.80716 13.1258 6.8054 13.1258 7.42129 12.6602L16.8805 5.56585C17.5013 5.10467 17.5013 4.35598 16.8805 3.89406ZM26.3406 7.93015C26.9614 7.47192 26.9614 6.72028 26.3406 6.2591C25.7296 5.79718 24.7245 5.79718 24.1135 6.2591L8.34563 18.085C7.72973 18.5433 7.72973 19.2971 8.34563 19.7553C8.96054 20.221 9.96273 20.221 10.5737 19.7553L26.3406 7.93015ZM37.8406 28.3803L25.2271 37.8405V28.3803H37.8406Z" fill="#3A8FBE"/>
</svg>
