<svg width="52" height="52" viewBox="0 0 52 52" fill="none" xmlns="http://www.w3.org/2000/svg">
<path d="M50.9652 33.8004C49.7931 32.0104 47.5578 31.6234 45.9685 32.9492L35.2746 41.8109H24.5003C23.7187 41.8109 23.1512 41.0822 23.1512 40.2038C23.1512 39.3244 23.7989 38.5957 24.5003 38.5957H31.4911C32.8401 38.5957 34.2382 37.5022 34.4723 35.9202C34.7627 33.9101 33.3895 32.1633 31.6474 32.1633H17.2754C14.9436 32.1633 12.5297 33.093 10.6536 34.8016L6.49927 38.5947L1.55166 38.5041C0.850436 38.5041 0.202637 39.3283 0.202637 40.2027V49.8493C0.202637 50.7358 0.850436 51.4595 1.55166 51.4595H32.472C34.4402 51.4595 36.3958 50.737 37.9842 49.4222L50.054 39.4198C51.7961 38.1021 52.1356 35.5894 50.9652 33.8004ZM25.1551 17.5887C24.4761 17.4781 23.5827 17.1163 22.7966 16.7947L22.3588 16.6238C21.2421 16.0911 20.0181 16.8349 19.625 18.0008C19.2319 19.1666 19.8145 20.634 20.9285 21.0803L21.3443 21.2467C22.1025 21.5544 22.9417 21.8593 23.7913 22.0821V23.3176C23.7913 24.6493 24.75 25.7297 25.9337 25.7297C27.1175 25.7297 28.0779 24.6493 28.0779 23.3176V22.2723C30.3355 21.6971 31.9087 20.0762 32.1964 17.6771C32.9726 12.6468 28.722 11.2789 26.4412 10.5462L25.9681 10.3622C23.6185 9.61247 23.7525 9.28883 23.815 8.87575C23.9183 8.19572 25.1819 7.86465 26.6926 8.13291C27.1338 8.21143 27.7084 8.3889 28.4482 8.67785C29.5676 9.10812 30.7897 8.44548 31.1748 7.18633C31.5599 5.92718 30.9685 4.55406 29.849 4.11786C29.1698 3.85383 28.6054 3.67985 28.0783 3.54286V2.41216C28.0783 1.08045 27.1179 0 25.9342 0C24.7504 0 23.7918 1.08045 23.7918 2.41216V3.46949C21.5369 4.04339 19.9556 5.6535 19.5089 8.05361C18.821 13.0257 23.136 14.4529 24.762 14.9956L25.3425 15.1841C28.171 16.0948 28.1255 16.3791 28.0531 16.8565C27.9514 17.5384 26.6917 17.8701 25.1551 17.5887Z" fill="#3A8FBE"/>
</svg>
