<svg width="27" height="26" viewBox="0 0 27 26" fill="none" xmlns="http://www.w3.org/2000/svg">
<path d="M12.9834 23.2479H13.8381V24.1026H12.9834V23.2479Z" fill="black"/>
<path d="M2.29973 10.4274H6.01768L8.47419 12.0651C8.60526 12.1519 8.77333 12.1595 8.91184 12.0853C9.05054 12.0111 9.13696 11.8667 9.13734 11.7095V10.4274H10.8467C11.3 10.4274 11.7349 10.2473 12.0555 9.92682C12.376 9.60612 12.5561 9.17131 12.5561 8.71803V1.88042C12.5561 1.42713 12.376 0.992315 12.0555 0.671631C11.7348 0.351118 11.3 0.171021 10.8467 0.171021H2.29973C1.84644 0.171021 1.41163 0.351118 1.09094 0.671631C0.77043 0.992334 0.590332 1.42714 0.590332 1.88042V8.71803C0.590332 9.17132 0.77043 9.60614 1.09094 9.92682C1.41165 10.2473 1.84645 10.4274 2.29973 10.4274L2.29973 10.4274ZM1.44503 1.88043C1.44503 1.65379 1.53508 1.43629 1.69533 1.27604C1.85559 1.11578 2.07308 1.02573 2.29973 1.02573H10.8467C11.0734 1.02573 11.2909 1.11578 11.4511 1.27604C11.6114 1.43629 11.7014 1.65379 11.7014 1.88043V8.71804C11.7014 8.94469 11.6114 9.16218 11.4511 9.32244C11.2909 9.48269 11.0734 9.57274 10.8467 9.57274H8.70999C8.47399 9.57274 8.28264 9.7641 8.28264 10.0001V10.9113L6.383 9.64464V9.64444C6.3128 9.59789 6.23019 9.5729 6.14586 9.57271H2.2997C2.07306 9.57271 1.85556 9.48266 1.69531 9.3224C1.53506 9.16215 1.445 8.94465 1.445 8.71801L1.44503 1.88043Z" fill="black"/>
<path d="M3.58165 8.71801H8.96626C9.23832 8.71801 9.49911 8.61003 9.69144 8.41753C9.88394 8.22522 9.99192 7.96443 9.99192 7.69235V5.47013C9.99192 5.19808 9.88394 4.93728 9.69144 4.74495C9.49913 4.55245 9.23834 4.44447 8.96626 4.44447H8.2825V3.58977C8.2825 3.13648 8.1024 2.70167 7.78189 2.38098C7.46119 2.06047 7.02638 1.88037 6.5731 1.88037C6.34645 1.88037 6.12896 1.97042 5.9687 2.13068C5.80845 2.29093 5.7184 2.50842 5.7184 2.73507V3.84027L5.1142 4.44447H3.58165C3.34565 4.44447 3.1543 4.63583 3.1543 4.87182V8.29063C3.1543 8.40395 3.19932 8.5127 3.27945 8.59283C3.35958 8.67295 3.46832 8.71798 3.58165 8.71798V8.71801ZM6.44797 4.31938C6.5281 4.23925 6.57312 4.1305 6.57312 4.01718V2.73513C6.79977 2.73513 7.01727 2.82518 7.17752 2.98543C7.33777 3.14569 7.42783 3.36318 7.42783 3.58983V4.44453H7.00048V5.29923H8.96629C9.01169 5.29923 9.05519 5.31716 9.08724 5.34921C9.1193 5.38126 9.13723 5.42476 9.13723 5.47017V7.69239C9.13723 7.7378 9.11929 7.78129 9.08724 7.81335C9.0552 7.8454 9.01169 7.86333 8.96629 7.86333H5.71842V5.04873L6.44797 4.31938ZM4.009 5.2992H4.8637V7.86331H4.009V5.2992Z" fill="black"/>
<path d="M24.5216 3.58983H20.2054C20.1062 3.10754 19.8439 2.67408 19.4623 2.36273C19.0809 2.05137 18.6038 1.881 18.1114 1.88043H13.4105V2.73513H18.1114C18.3756 2.73628 18.633 2.81888 18.8484 2.9719C19.0638 3.1249 19.2267 3.34068 19.3148 3.58982H16.8293C16.2213 3.59173 15.6606 3.91739 15.3574 4.44452H13.4105V5.29922H15.1199V11.2821C15.1199 11.7354 15.3 12.1702 15.6205 12.4909C15.9412 12.8114 16.376 12.9915 16.8293 12.9915V14.2736C16.8293 14.4312 16.9161 14.5762 17.055 14.6504C17.1941 14.7248 17.3627 14.7166 17.4938 14.6292L19.3934 13.3624V16.6606L18.6272 15.8944C18.1375 15.4049 17.4238 15.2137 16.7551 15.3928C16.0862 15.572 15.5637 16.0945 15.3846 16.7634C15.2054 17.432 15.3966 18.1458 15.8861 18.6355L17.9878 20.7371H17.988C17.8224 20.9886 17.6844 21.2572 17.5768 21.5384H13.8379V22.3931H17.3473C17.2084 23.2699 17.3528 24.1681 17.7596 24.9572H8.7095C8.36953 24.9572 8.04328 24.8221 7.80293 24.5817C7.56259 24.3414 7.42748 24.0151 7.42748 23.6752H10.8463C11.2996 23.6752 11.7344 23.4951 12.0551 23.1746C12.3756 22.8539 12.5557 22.4191 12.5557 21.9658V18.547C12.5557 18.0937 12.3756 17.6589 12.0551 17.3382C11.7344 17.0177 11.2996 16.8376 10.8463 16.8376H9.13688V15.5555C9.13688 15.3979 9.05007 15.2529 8.91118 15.1787C8.7721 15.1043 8.60345 15.1125 8.47238 15.1999L7.42745 15.8974V12.1367H6.57275V16.4667L6.0172 16.8376H2.29925C1.84595 16.8376 1.41114 17.0176 1.09045 17.3382C0.769941 17.6589 0.589844 18.0937 0.589844 18.547V21.9658C0.589844 22.4191 0.769941 22.8539 1.09045 23.1745C1.41116 23.4951 1.84596 23.6752 2.29925 23.6752H6.57275C6.57351 24.2416 6.79883 24.7848 7.19927 25.1854C7.59991 25.5858 8.14306 25.8111 8.7095 25.8119H18.1112C18.2163 25.811 18.3211 25.8022 18.4249 25.7854C18.4613 25.7995 18.4996 25.8085 18.5386 25.8119H23.6668C23.7801 25.8119 23.8888 25.7669 23.969 25.6868C24.0491 25.6066 24.0941 25.4979 24.0941 25.3846V17.282C24.0958 16.1532 23.6893 15.0619 22.9496 14.2093L22.0104 12.9913H24.5215C24.9748 12.9913 25.4096 12.8112 25.7303 12.4907C26.0508 12.17 26.2309 11.7352 26.2309 11.2819V5.29899C26.2309 4.8457 26.0508 4.41088 25.7303 4.0902C25.4096 3.76969 24.9748 3.58959 24.5215 3.58959L24.5216 3.58983ZM2.29941 22.8206C2.07276 22.8206 1.85527 22.7306 1.69502 22.5703C1.53476 22.41 1.44471 22.1926 1.44471 21.9659V18.5471C1.44471 18.3205 1.53476 18.103 1.69502 17.9427C1.85527 17.7825 2.07276 17.6924 2.29941 17.6924H6.14557C6.22989 17.6922 6.3125 17.6672 6.38271 17.6207L8.28234 16.3538V17.265C8.28234 17.3783 8.32737 17.4871 8.4075 17.5672C8.48762 17.6473 8.59637 17.6924 8.70969 17.6924H10.8464C11.0731 17.6924 11.2906 17.7824 11.4508 17.9427C11.6111 18.1029 11.7011 18.3204 11.7011 18.5471V21.9659C11.7011 22.1925 11.6111 22.41 11.4508 22.5703C11.2906 22.7305 11.0731 22.8206 10.8464 22.8206L2.29941 22.8206ZM22.2896 14.7513C22.9022 15.4522 23.2397 16.3513 23.2397 17.2821V24.9574H18.755C18.3695 24.4108 18.1579 23.7602 18.1484 23.0913C18.1388 22.4225 18.3315 21.7661 18.7012 21.2087L18.8935 20.9223C19.0076 20.7527 18.9855 20.5263 18.8411 20.3817L16.4906 18.0312C16.2239 17.7561 16.1224 17.3607 16.2235 16.9911C16.3247 16.6215 16.6133 16.3329 16.9829 16.2318C17.3524 16.1307 17.7479 16.2322 18.023 16.4989L21.2281 19.704L21.8323 19.0998L20.2483 17.5155V12.9915H20.932L22.2896 14.7513ZM25.3765 11.2821C25.3765 11.5087 25.2864 11.7262 25.1262 11.8865C24.9659 12.0467 24.7484 12.1368 24.5218 12.1368H19.8209C19.7366 12.137 19.654 12.162 19.5838 12.2085L17.6842 13.4753V12.5642C17.6842 12.4509 17.6391 12.3421 17.559 12.262C17.4789 12.1819 17.3701 12.1368 17.2568 12.1368H16.8295C16.6028 12.1368 16.3853 12.0468 16.2251 11.8865C16.0648 11.7263 15.9747 11.5088 15.9747 11.2821V5.29923C15.9747 5.07258 16.0648 4.85508 16.2251 4.69483C16.3853 4.53458 16.6028 4.44453 16.8295 4.44453H24.5218C24.7484 4.44453 24.9659 4.53458 25.1262 4.69483C25.2864 4.85508 25.3765 5.07258 25.3765 5.29923L25.3765 11.2821Z" fill="black"/>
<path d="M22.5737 5.75828C22.0582 5.6606 21.5262 5.79911 21.1238 6.13565L20.6754 6.50405L20.2275 6.13565C19.8249 5.79892 19.2926 5.66041 18.7772 5.75828C18.2354 5.86874 17.7714 6.21634 17.5131 6.70534C17.2773 7.13021 17.1985 7.6247 17.2902 8.10187C17.382 8.5792 17.6386 9.00902 18.0152 9.31637L20.4122 11.1933C20.5669 11.3143 20.784 11.3143 20.9387 11.1933L23.3357 9.31637C23.7123 9.00902 23.9687 8.57899 24.0605 8.10167C24.1524 7.62434 24.0735 7.13 23.8378 6.70475C23.5793 6.21615 23.1155 5.86875 22.5737 5.75828H22.5737ZM22.8088 8.64116L20.6755 10.3116L18.5421 8.64116C18.3265 8.4582 18.1808 8.20637 18.1297 7.92839C18.0785 7.65023 18.1251 7.36311 18.2613 7.11545C18.3985 6.85007 18.6471 6.65986 18.9391 6.59711C18.9943 6.5868 19.0502 6.58146 19.1063 6.58127C19.3182 6.58261 19.5229 6.65835 19.6849 6.79495L20.4042 7.38674C20.5618 7.51647 20.7892 7.51647 20.9468 7.38674L21.6666 6.79495C21.872 6.61923 22.146 6.54617 22.4118 6.59615C22.7037 6.65911 22.9522 6.84913 23.0896 7.1141C23.2262 7.36193 23.2728 7.64944 23.2216 7.92778C23.1705 8.20594 23.0246 8.45794 22.8088 8.64109L22.8088 8.64116Z" fill="black"/>
<path d="M2.29932 18.9744H8.28222V19.8291H2.29932V18.9744Z" fill="black"/>
<path d="M9.13672 18.9744H10.8461V19.8291H9.13672V18.9744Z" fill="black"/>
<path d="M2.29932 20.6838H4.86342V21.5385H2.29932V20.6838Z" fill="black"/>
<path d="M5.71826 20.6838H10.8465V21.5385H5.71826V20.6838Z" fill="black"/>
</svg>
