<svg width="35" height="35" viewBox="0 0 35 35" fill="none" xmlns="http://www.w3.org/2000/svg">
<path d="M17.3958 28.5746C16.2803 28.5746 15.3726 29.4799 15.3726 30.5927C15.3726 31.7055 16.2803 32.6107 17.3958 32.6107C18.5112 32.6107 19.419 31.7055 19.419 30.5927C19.419 29.4799 18.5112 28.5746 17.3958 28.5746ZM17.3958 31.7559C16.7513 31.7559 16.2273 31.234 16.2273 30.5925C16.2273 29.951 16.7513 29.429 17.3958 29.429C18.0403 29.429 18.5643 29.951 18.5643 30.5925C18.5643 31.2343 18.0399 31.7559 17.3958 31.7559Z" fill="black"/>
<path d="M2.82063 5.44471C4.23449 5.44471 5.38491 4.2947 5.38491 2.8805C5.38491 1.46668 4.23487 0.316284 2.82063 0.316284C1.40677 0.316284 0.256348 1.4663 0.256348 2.8805C0.256348 4.2947 1.40639 5.44471 2.82063 5.44471ZM2.82063 1.17128C3.76348 1.17128 4.52989 1.93797 4.52989 2.8805C4.52989 3.82309 3.76317 4.58972 2.82063 4.58972C1.87778 4.58972 1.11136 3.82302 1.11136 2.8805C1.11106 1.9382 1.87778 1.17128 2.82063 1.17128Z" fill="black"/>
<path d="M28.5215 25.8855C28.5215 27.2993 29.6715 28.4497 31.0858 28.4497C32.4996 28.4497 33.65 27.2997 33.65 25.8855C33.65 24.4717 32.5 23.3213 31.0858 23.3213C29.6719 23.3213 28.5215 24.4716 28.5215 25.8855ZM32.795 25.8855C32.795 26.8281 32.0283 27.5947 31.0858 27.5947C30.1429 27.5947 29.3765 26.828 29.3765 25.8855C29.3765 24.943 30.1432 24.1763 31.0858 24.1763C32.0286 24.1763 32.795 24.943 32.795 25.8855Z" fill="black"/>
<path d="M3.92701 18.1711C3.76604 18.1944 3.63189 18.3074 3.58182 18.4621C3.53174 18.6171 3.57377 18.7873 3.69063 18.9005L5.72964 20.8808L5.24851 23.6763C5.22108 23.8366 5.28637 23.9985 5.41783 24.0942C5.54959 24.1905 5.72457 24.203 5.86766 24.1273L7.98383 23.0192V32.5879C7.98443 33.6447 8.84411 34.5043 9.9009 34.5043H24.8896C25.9464 34.5043 26.8061 33.6446 26.8061 32.5879L26.8058 18.1132L28.355 17.3021L31.6562 19.0307C31.7185 19.0635 31.7864 19.0796 31.8544 19.0796C31.9432 19.0796 32.0315 19.0521 32.106 18.9979C32.2375 18.9022 32.303 18.74 32.2753 18.58L31.6454 14.9206L34.3146 12.329C34.4315 12.2157 34.4735 12.0455 34.4234 11.8908C34.3734 11.7358 34.2395 11.6228 34.0783 11.5996L30.3878 11.0654L28.7375 7.7354C28.5933 7.44416 28.1157 7.44416 27.9714 7.7354L26.8059 10.0879V2.24618C26.8059 1.18942 25.9462 0.329773 24.8894 0.329773H9.90151C8.84472 0.329773 7.98505 1.1895 7.98505 2.24618V15.2656L6.74763 17.7631L3.92701 18.1711ZM24.8895 33.6493H9.90082C9.31535 33.6493 8.839 33.1733 8.839 32.5875V27.4592H25.9507V32.5875C25.9507 33.173 25.4747 33.6493 24.8892 33.6493H24.8895ZM25.951 26.6046H8.8393V23.0412L10.9138 24.1274C10.9761 24.1602 11.0441 24.1763 11.112 24.1763C11.2009 24.1763 11.2891 24.1489 11.3636 24.0944C11.4951 23.9987 11.5607 23.8365 11.533 23.6764L11.0518 20.8809L13.0908 18.9007C13.2077 18.7874 13.2497 18.6172 13.1997 18.4622C13.1496 18.3075 13.0157 18.1945 12.8545 18.1713L10.0345 17.7632L8.83878 15.3502L8.83937 5.0657H25.9511V11.1187L22.6312 11.5992C22.4702 11.6225 22.3361 11.7355 22.286 11.8905C22.2359 12.0452 22.2779 12.2154 22.3948 12.3287L25.064 14.9203L24.4341 18.5796C24.4067 18.7397 24.472 18.9019 24.6034 18.9975C24.7352 19.0932 24.9102 19.1061 25.0533 19.0306L25.9512 18.5605L25.951 26.6046ZM26.9881 11.6453L28.3549 8.88679L29.7217 11.6453C29.7843 11.7714 29.9044 11.8584 30.0433 11.8787L33.0962 12.3205L30.8884 14.4641C30.7871 14.5621 30.7412 14.704 30.765 14.8429L31.2864 17.8721L28.5531 16.441C28.4908 16.4085 28.4229 16.3921 28.3549 16.3921C28.2869 16.3921 28.219 16.4085 28.1567 16.441L25.4234 17.8721L25.9448 14.8429C25.9686 14.704 25.9227 14.5621 25.8214 14.4641L23.6136 12.3205L26.6665 11.8787C26.8054 11.8581 26.9255 11.7714 26.9881 11.6453H26.9881ZM9.90082 1.18454H24.8895C25.475 1.18454 25.9513 1.66059 25.9513 2.24634V4.21105L8.83961 4.21075V2.24604C8.83961 1.66088 9.31597 1.18455 9.90143 1.18455L9.90082 1.18454ZM7.41346 18.3439L8.39096 16.3711L9.36846 18.3439C9.43106 18.47 9.55119 18.557 9.6901 18.5773L11.8725 18.8933L10.295 20.4251C10.1936 20.5235 10.1477 20.6651 10.1715 20.804L10.5442 22.9697L8.58925 21.946C8.52695 21.9135 8.45899 21.8971 8.39101 21.8971C8.32304 21.8971 8.25509 21.9135 8.19278 21.946L6.23786 22.9697L6.61048 20.804C6.63433 20.6651 6.58842 20.5232 6.48707 20.4251L4.90952 18.8933L7.09193 18.5773C7.23084 18.557 7.35097 18.47 7.41357 18.3439H7.41346Z" fill="black"/>
<path d="M0.683825 29.4293H1.63538V30.3686C1.63538 30.6047 1.82646 30.7961 2.06285 30.7961C2.29895 30.7961 2.49033 30.6047 2.49033 30.3686V29.4293H3.44188C3.67798 29.4293 3.86936 29.2379 3.86936 29.0018C3.86936 28.7657 3.67828 28.5744 3.44188 28.5744H2.49033V27.635C2.49033 27.399 2.29925 27.2076 2.06285 27.2076C1.82675 27.2076 1.63538 27.399 1.63538 27.635V28.5744L0.683825 28.5747C0.447727 28.5747 0.256348 28.766 0.256348 29.0021C0.256348 29.2379 0.447429 29.4293 0.683825 29.4293Z" fill="black"/>
<path d="M29.7068 2.53763H30.6583V3.47694C30.6583 3.71304 30.8494 3.90441 31.0858 3.90441C31.3219 3.90441 31.5133 3.71304 31.5133 3.47694V2.53763H32.4648C32.7009 2.53763 32.8923 2.34626 32.8923 2.11016C32.8923 1.87407 32.7012 1.6827 32.4648 1.6827H31.5133V0.743994C31.5133 0.507902 31.3222 0.316528 31.0858 0.316528C30.8497 0.316528 30.6583 0.507902 30.6583 0.743994V1.68331H29.7068C29.4707 1.68331 29.2793 1.87468 29.2793 2.11077C29.2796 2.34656 29.4707 2.53764 29.7068 2.53764V2.53763Z" fill="black"/>
<path d="M5.24796 9.29081C5.24796 9.05472 5.05688 8.86334 4.82048 8.86334C4.58438 8.86334 4.393 9.05472 4.393 9.29081V10.2301H3.44115C3.20505 10.2301 3.01367 10.4215 3.01367 10.6576C3.01367 10.8937 3.20475 11.0851 3.44115 11.0851H4.393V12.0244C4.393 12.2605 4.58408 12.4518 4.82048 12.4518C5.05658 12.4518 5.24796 12.2605 5.24796 12.0244V11.0851H6.19951C6.43561 11.0851 6.62699 10.8937 6.62699 10.6576C6.62699 10.4215 6.4359 10.2301 6.19951 10.2301H5.24796V9.29081Z" fill="black"/>
</svg>
