<svg width="50" height="50" viewBox="0 0 50 50" fill="none" xmlns="http://www.w3.org/2000/svg">
<path d="M42.3717 0C46.2375 0 49.3806 3.13756 49.3806 7.00885V42.0531C49.3806 45.9189 46.2375 49.0619 42.3717 49.0619H7.32745C3.45616 49.0619 0.318604 45.9189 0.318604 42.0531V7.00885C0.318604 3.13756 3.45616 0 7.32745 0H42.3717ZM14.3363 21.0265C12.3979 21.0265 10.8319 22.5926 10.8319 24.531V35.0442C10.8319 36.9826 12.3979 38.5487 14.3363 38.5487C16.2747 38.5487 17.8407 36.9826 17.8407 35.0442V24.531C17.8407 22.5926 16.2747 21.0265 14.3363 21.0265ZM21.3452 35.0442C21.3452 36.9826 22.9112 38.5487 24.8496 38.5487C26.788 38.5487 28.354 36.9826 28.354 35.0442V14.0177C28.354 12.0793 26.788 10.5133 24.8496 10.5133C22.9112 10.5133 21.3452 12.0793 21.3452 14.0177V35.0442ZM35.3629 28.0354C33.4245 28.0354 31.8584 29.6014 31.8584 31.5398V35.0442C31.8584 36.9826 33.4245 38.5487 35.3629 38.5487C37.3012 38.5487 38.8673 36.9826 38.8673 35.0442V31.5398C38.8673 29.6014 37.3012 28.0354 35.3629 28.0354Z" fill="#3A8FBE"/>
</svg>
