<svg width="16" height="16" viewBox="0 0 16 16" fill="none" xmlns="http://www.w3.org/2000/svg">
<g clip-path="url(#clip0_1_3)">
<path d="M3.654 1.32799C3.59496 1.25205 3.52045 1.18954 3.4354 1.14461C3.35035 1.09969 3.25672 1.07337 3.16072 1.06741C3.06472 1.06145 2.96855 1.07599 2.87859 1.11005C2.78864 1.14412 2.70697 1.19693 2.639 1.26499L1.605 2.29999C1.122 2.78399 0.943998 3.46899 1.155 4.06999C2.03074 6.55758 3.45529 8.81609 5.323 10.678C7.18492 12.5457 9.44343 13.9702 11.931 14.846C12.532 15.057 13.217 14.879 13.701 14.396L14.735 13.362C14.8031 13.294 14.8559 13.2123 14.8899 13.1224C14.924 13.0324 14.9385 12.9363 14.9326 12.8403C14.9266 12.7443 14.9003 12.6506 14.8554 12.5656C14.8104 12.4805 14.7479 12.406 14.672 12.347L12.365 10.553C12.2839 10.4901 12.1895 10.4464 12.089 10.4253C11.9886 10.4041 11.8846 10.4061 11.785 10.431L9.595 10.978C9.30268 11.0511 8.99642 11.0472 8.70604 10.9667C8.41566 10.8863 8.15106 10.732 7.938 10.519L5.482 8.06199C5.26877 7.84903 5.11432 7.58447 5.03371 7.29409C4.9531 7.00371 4.94906 6.6974 5.022 6.40499L5.57 4.21499C5.59491 4.11539 5.59687 4.01143 5.57573 3.91095C5.5546 3.81048 5.51092 3.71612 5.448 3.63499L3.654 1.32799ZM1.884 0.51099C2.05899 0.335939 2.26923 0.20012 2.50074 0.112551C2.73225 0.0249819 2.97974 -0.0123334 3.22678 0.00308286C3.47382 0.0184991 3.71475 0.0862943 3.93358 0.201967C4.15241 0.317639 4.34412 0.478541 4.496 0.67399L6.29 2.97999C6.619 3.40299 6.735 3.95399 6.605 4.47399L6.058 6.66399C6.02972 6.77742 6.03124 6.89623 6.06243 7.0089C6.09362 7.12156 6.15341 7.22425 6.236 7.30699L8.693 9.76399C8.77583 9.84674 8.87869 9.90663 8.99155 9.93783C9.10441 9.96902 9.22342 9.97045 9.337 9.94199L11.526 9.39499C11.7826 9.33083 12.0505 9.32584 12.3093 9.38042C12.5681 9.43499 12.8111 9.54768 13.02 9.70999L15.326 11.504C16.155 12.149 16.231 13.374 15.489 14.115L14.455 15.149C13.715 15.889 12.609 16.214 11.578 15.851C8.93918 14.9225 6.54327 13.4118 4.568 11.431C2.58729 9.456 1.07661 7.06045 0.147998 4.42199C-0.214002 3.39199 0.110998 2.28499 0.850998 1.54499L1.885 0.51099H1.884Z" fill="black"/>
</g>
<defs>
<clipPath id="clip0_1_3">
<rect width="16" height="16" fill="white"/>
</clipPath>
</defs>
</svg>
