<svg width="16" height="12" viewBox="0 0 16 12" fill="none" xmlns="http://www.w3.org/2000/svg">
<g clip-path="url(#clip0_2_4)">
<path d="M15.6466 1.75469C15.5549 1.41553 15.3758 1.10634 15.1274 0.857893C14.879 0.609445 14.5698 0.430413 14.2306 0.338625C12.989 0 7.99188 0 7.99188 0C7.99188 0 2.9945 0.01025 1.75288 0.348875C1.41372 0.440669 1.10453 0.61971 0.856091 0.868169C0.607653 1.11663 0.428639 1.42584 0.336876 1.765C-0.0386869 3.97113 -0.184375 7.33275 0.347188 9.45063C0.438962 9.78978 0.61798 10.099 0.866416 10.3474C1.11485 10.5959 1.42404 10.7749 1.76319 10.8667C3.00481 11.2053 8.00207 11.2053 8.00207 11.2053C8.00207 11.2053 12.9993 11.2053 14.2408 10.8667C14.58 10.7749 14.8892 10.5959 15.1376 10.3474C15.3861 10.099 15.5651 9.78979 15.6569 9.45063C16.053 7.24138 16.1751 3.88188 15.6466 1.75475V1.75469Z" fill="#FF0000"/>
<path d="M6.40131 8.00375L10.5468 5.60262L6.40131 3.20149V8.00375Z" fill="white"/>
</g>
<defs>
<clipPath id="clip0_2_4">
<rect width="16" height="11.25" fill="white"/>
</clipPath>
</defs>
</svg>
